# xmcd CD database file
#
# Track frame offsets:
#	150
#	10821
#	29796
#	46723
#	83907
#	113568
#	132599
#
# Disc length: 2160 seconds
#
# Revision: 0
# Processed by: cddbd v1.5.1PL2 Copyright (c) Steve Scherf et al.
# Submitted via: CDex 1.51
#
DISCID=53086e07
DTITLE=Roy Buchanan - Live Stock
DYEAR=1900
DGENRE=Blues
TTITLE0=Reelin' And Rockin'
TTITLE1=Hot Cha
TTITLE2=Further On Up The Road
TTITLE3=Roy's Bluez
TTITLE4=Can I Change My Mind
TTITLE5=I'm A Ram
TTITLE6=I'm Evil
EXTD=
EXTT0=
EXTT1=
EXTT2=
EXTT3=
EXTT4=
EXTT5=
EXTT6=
PLAYORDER=
